<svg xmlns="http://www.w3.org/2000/svg" width="800" height="600" viewBox="0 0 800 600">
<polyline points="628,161 626,162 628,203 655,239 638,270 634,279 620,306 599,346 510,319 465,305 424,313 401,371 388,402 358,351 331,338 330,338 321,333 330,331 327,299 323,261 413,289 440,273 465,207 450,169 486,154 561,123 568,120 524,59 510,94 459,65 420,94 313,173 319,224 289,236 300,254 270,245 199,274 148,296 15,394 0,406 0,433 1,435 112,468 336,534 349,502 353,539 478,576 485,564 548,442 555,430 563,449 620,477 620,353 639,359 754,394 763,387 673,264 774,243 680,190 726,102 628,161" style="stroke:rgb(0,0,0);stroke-width:2;fill:none" />
</svg>