<svg xmlns="http://www.w3.org/2000/svg" width="800" height="600" viewBox="0 0 800 600">
<polygon points="475,262 447,194 428,198 475,262" style="fill:rgb(255,0,0);stroke:rgb(255,0,0);stroke-width:1" />
<polygon points="544,434 475,262 428,198 355,215 232,330 271,415 408,473 544,434" style="fill:rgb(255,0,0);stroke:rgb(255,0,0);stroke-width:1" />
<polygon points="317,224 214,292 232,330 355,215 317,224" style="fill:rgb(255,0,0);stroke:rgb(255,0,0);stroke-width:1" />
<polygon points="214,292 317,224 263,237 206,273 214,292" style="fill:rgb(255,0,0);stroke:rgb(255,0,0);stroke-width:1" />
<polygon points="122,352 214,292 206,273 96,342 122,352" style="fill:rgb(255,0,0);stroke:rgb(255,0,0);stroke-width:1" />
<polygon points="96,342 206,273 196,252 90,277 14,307 96,342" style="fill:rgb(255,0,0);stroke:rgb(255,0,0);stroke-width:1" />
<polygon points="206,273 263,237 196,252 206,273" style="fill:rgb(255,0,0);stroke:rgb(255,0,0);stroke-width:1" />
<polygon points="263,237 394,155 189,237 196,252 263,237" style="fill:rgb(255,0,0);stroke:rgb(255,0,0);stroke-width:1" />
<polygon points="394,155 395,153 318,48 165,22 101,44 189,237 394,155" style="fill:rgb(255,0,0);stroke:rgb(255,0,0);stroke-width:1" />
<polygon points="430,150 412,162 406,168 428,198 447,194 430,150" style="fill:rgb(255,0,0);stroke:rgb(255,0,0);stroke-width:1" />
<polygon points="412,162 405,167 406,168 412,162" style="fill:rgb(255,0,0);stroke:rgb(255,0,0);stroke-width:1" />
<polygon points="405,167 412,162 428,147 426,141 396,154 405,167" style="fill:rgb(255,0,0);stroke:rgb(255,0,0);stroke-width:1" />
<polygon points="317,224 405,167 396,154 394,155 263,237 317,224" style="fill:rgb(255,0,0);stroke:rgb(255,0,0);stroke-width:1" />
<polygon points="472,123 430,150 447,194 661,145 669,106 559,88 472,123" style="fill:rgb(255,0,0);stroke:rgb(255,0,0);stroke-width:1" />
<polygon points="601,418 661,145 447,194 475,262 591,421 601,418" style="fill:rgb(255,0,0);stroke:rgb(255,0,0);stroke-width:1" />
<polygon points="475,262 544,434 591,421 475,262" style="fill:rgb(255,0,0);stroke:rgb(255,0,0);stroke-width:1" />
<polygon points="661,145 601,418 633,409 678,141 661,145" style="fill:rgb(255,0,0);stroke:rgb(255,0,0);stroke-width:1" />
<polyline points="430,150 472,123 472,123 559,88 559,88 669,106 669,106 661,145 661,145 447,194 447,194 430,150 412,162 406,168 428,198 355,215 232,330 271,415 408,473 544,434 475,262 447,194 428,198 475,262 591,421 601,418 661,145 678,141 633,409 601,418" style="stroke:rgb(0,0,0);stroke-width:2;fill:none" />
<polyline points="355,215 317,224 214,292 232,330" style="stroke:rgb(0,0,0);stroke-width:2;fill:none" />
<polyline points="406,168 405,167 405,167 396,154 396,154 426,141 426,141 428,147 428,147 412,162 412,162 405,167 317,224 317,224 263,237 206,273 214,292 122,352 96,342 206,273 196,252 90,277 14,307 96,342" style="stroke:rgb(0,0,0);stroke-width:2;fill:none" />
<polyline points="196,252 189,237 189,237 394,155 394,155 263,237 263,237 196,252" style="stroke:rgb(0,0,0);stroke-width:2;fill:none" />
<polyline points="396,154 394,155 395,153 318,48 165,22 101,44 189,237" style="stroke:rgb(0,0,0);stroke-width:2;fill:none" />
<polyline points="544,434 591,421" style="stroke:rgb(0,0,0);stroke-width:2;fill:none" />
</svg>